<?xml version="1.0" encoding="UTF-8"?>
<svg width="75.813mm" height="137.94mm" version="1.1" viewBox="0 0 268.63002 488.7513" xmlns="http://www.w3.org/2000/svg">
 <g transform="translate(-205.68 -310.84)">
  <g transform="matrix(.48217 0 0 .48217 546.37 203.14)" filter="url(#filter4240)">
   <path d="m-431.77 224.97c-47.802 57.054-90.092 121-118.3 202.55-2.7076 9.4919-3.0031 13.308-3.492 25.351 0.32376 240.72 8.0705 482.68 11.99 724h227c3.9591-241.43 12.61-478.17 12.045-724.13-0.33051-14.154-1.7441-19.583-3.6913-24.991-28.891-78.95-69.483-145.22-118.12-202.78-3.0045-1.8689-4.176-2.363-7.433 6e-3z" fill="#bd4a4a"/>
   <path d="m-434.63 543.18c-10.151 18.222-17.52 39.226-26.187 58.932l-26.965 60.681c-5.009 13.361-5.0004 19.844-5.785 26.321v487.75h131v-487.75c-0.103-14.242-3.0035-19.12-5.8546-26.478l-26.895-60.524c-8.7042-19.618-15.598-38.331-26.164-58.88-7.5774-13.465-6.6962-10.035-13.149-0.0522z" fill="#e6e6e6"/>
   <path d="m-462.63 685.01c26.428-17.488 51.352-11.762 69.127 0l-7.2235 17.284c-23.042-9.2692-31-9.4595-54.042 0.0657z" fill="#263248"/>
   <path d="m-277.13 483.65c-19.312 31.068-24.915 55.077-32.865 90.931-3.0972 15.653-3.0918 23.248-3.577 30.838v571.44h81v-571.44c-0.0637-16.686-1.8571-22.401-3.62-31.021-3.9556-20.941-17.572-59.324-32.808-90.686-2.9111-3.7929-3.1267-4.9105-8.1302-0.0611z" fill="#e6e6e6"/>
   <path d="m-587.13 483.65c-19.312 31.068-24.915 55.077-32.865 90.931-3.0972 15.653-3.0918 23.248-3.577 30.838v571.44h81v-571.44c-0.0637-16.686-1.8571-22.401-3.62-31.021-3.9556-20.941-17.572-59.324-32.808-90.686-2.9111-3.7929-3.1267-4.9105-8.1302-0.0611z" fill="#e6e6e6"/>
   <path d="m-493.5 756.86v420.5h-205c-25.83-48.173 15.055-88.648 57-129 144.17-119.95 96.254-178.84 148-291.5z" fill="#263248" fill-rule="evenodd"/>
   <path d="m-585.67 1118-14.554-7.2475-14.221 7.8802 2.3954-16.081-11.889-11.09 16.034-2.691 6.8731-14.734 7.5141 14.418 16.137 1.9836-11.39 11.602z" fill="#dbe460"/>
   <path d="m-362.49 756.86v420.5h205c25.83-48.173-15.055-88.648-57-129-144.17-119.95-96.254-178.84-148-291.5z" fill="#263248" fill-rule="evenodd"/>
   <path transform="scale(-1,1)" d="m270.32 1118-14.553-7.2475-14.221 7.8802 2.3954-16.081-11.889-11.09 16.034-2.691 6.8731-14.734 7.5141 14.418 16.137 1.9836-11.39 11.602z" fill="#dbe460"/>
   <path d="m-313.67 1177v60h81v-60h-81z" fill="#b98a8a"/>
   <path d="m-623.57 1177v60h81v-60h-81z" fill="#b98a8a"/>
   <path d="m-479.57 1176.9-14 54h131l-14-54z" fill="#333"/>
   <path d="m-623.57 1205v16h81v-16h-81z" fill="#ccc"/>
   <path d="m-313.67 1205v16h81v-16h-81z" fill="#ccc"/>
   <path d="m-623.57 893.02v16h81v-16h-81z" fill="#808080"/>
   <path d="m-623.57 669.02v16h81v-16h-81z" fill="#808080"/>
   <path d="m-623.57 711.02v16h81v-16h-81z" fill="#808080"/>
   <path d="m-313.57 711.02v16h81v-16h-81z" fill="#808080"/>
   <path d="m-313.57 669.02v16h81v-16h-81z" fill="#808080"/>
   <path d="m-313.57 893.02v16h81v-16h-81z" fill="#808080"/>
  </g>
 </g>
</svg>
